# AST/ASF file generated using VICON BodyLanguage
# -----------------------------------------------
:version 1.10
:name VICON
:units
  mass 1.0
  length 0.45
  angle deg
:documentation
   .ast/.asf automatically generated from VICON data using
   VICON BodyBuilder and BodyLanguage model FoxedUp or BRILLIANT.MOD
:root
   order TX TY TZ RX RY RZ
   axis XYZ
   position 0 0 0  
   orientation 0 0 0 
:bonedata
  begin
     id 1 
     name lhipjoint
     direction 0.543289 -0.788407 0.288535 
     length 2.57127 
     axis 0 0 0  XYZ
  end
  begin
     id 2 
     name lfemur
     direction 0.34202 -0.939693 0  
     length 8.47298  
     axis 0 0 20  XYZ
    dof rx ry rz
    limits (-160.0 20.0)
           (-70.0 70.0)
           (-60.0 70.0)
  end
  begin
     id 3 
     name ltibia
     direction 0.34202 -0.939693 0   
     length 8.13367   
     axis 0 0 20   XYZ
    dof rx
    limits (-10.0 170.0)
  end
  begin
     id 4 
     name lfoot
     direction 0.114037 -0.313314 0.942778   
     length 2.67113   
     axis -90 7.62852e-016 20   XYZ
    dof rx rz
    limits (-45.0 90.0)
           (-70.0 20.0)
  end
  begin
     id 5 
     name ltoes
     direction 1.536e-011 -4.21847e-011 1   
     length 1.32217   
     axis -90 7.62852e-016 20   XYZ
    dof rx
    limits (-90.0 20.0)
  end
  begin
     id 6 
     name rhipjoint
     direction -0.571293 -0.770752 0.282074   
     length 2.63017  
     axis 0 0 0  XYZ 
  end
  begin
     id 7 
     name rfemur
     direction -0.34202 -0.939693 0   
     length 8.60885   
     axis 0 0 -20   XYZ
    dof rx ry rz
    limits (-160.0 20.0)
           (-70.0 70.0)
           (-70.0 60.0)
  end
  begin
     id 8 
     name rtibia
     direction -0.34202 -0.939693 0   
     length 8.07673   
     axis 0 0 -20   XYZ
    dof rx
    limits (-10.0 170.0)
 end
 begin
     id 9 
     name rfoot
     direction -0.121336 -0.333368 0.934956   
     length 2.81602  
     axis -90 -7.62852e-016 -20   XYZ
    dof rx rz
    limits (-45.0 90.0)
           (-20.0 70.0)
  end
  begin
     id 10 
     name rtoes
     direction -1.53491e-011 -4.21808e-011 1   
     length 1.38905   
     axis -90 -7.62852e-016 -20   XYZ
    dof rx
    limits (-90.0 20.0)
  end
  begin
     id 11 
     name lowerback
     direction 0.0136776 0.999869 -0.00861835   
     length 2.14087   
     axis 0 0 0   XYZ
    dof rx ry rz
    limits (-20.0 45.0)
           (-30.0 30.0)
           (-30.0 30.0)
  end
  begin
     id 12 
     name upperback
     direction -0.00789158 0.999804 0.0181308   
     length 2.14151   
     axis 0 0 0   XYZ
    dof rx ry rz
    limits (-20.0 45.0)
           (-30.0 30.0)
           (-30.0 30.0)
  end
  begin
     id 13 
     name thorax
     direction -0.0135231 0.999666 0.0220247   
     length 2.13644   
     axis 0 0 0   XYZ
    dof rx ry rz
    limits (-20.0 45.0)
           (-30.0 30.0)
           (-30.0 30.0)
  end
  begin
     id 14 
     name lowerneck
     direction -0.0392259 0.997317 0.0618018   
     length 1.65045   
     axis 0 0 0   XYZ
    dof rx ry rz
    limits (-20.0 45.0)
           (-30.0 30.0)
           (-30.0 30.0)
  end
  begin
     id 15 
     name upperneck
     direction 0.0765547 0.994276 -0.0745319   
     length 1.66045   
     axis 0 0 0   XYZ
    dof rx ry rz
    limits (-20.0 45.0)
           (-30.0 30.0)
           (-30.0 30.0)
  end
  begin
     id 16
     name head
     direction 0.0241564 0.999031 -0.036785  
     length 1.66594  
     axis 0 0 0   XYZ
    dof rx ry rz
    limits (-20.0 45.0)
           (-30.0 30.0)
           (-30.0 30.0)
  end
  begin
     id 17 
     name lclavicle
     direction 0.967398 0.249018 0.0461573  
     length 3.75176  
     axis 0 0 0   XYZ
    dof ry rz
    limits (-20.0 10.0)
           (0.0 20.0)
  end
  begin
     id 18 
     name lhumerus
     direction 1 -4.48963e-011 -3.05005e-027   
     length 5.93342   
     axis 180 -30 -90   XYZ
    dof rx ry rz
    limits (-60.0 90.0)
           (-90.0 90.0)
           (-90.0 90.0)
  end
  begin
     id 19
     name lradius
     direction 1 -4.48957e-011 1.07006e-026   
     length 3.94763   
     axis 180 -30 -90   XYZ
    dof rx
    limits (-10.0 170.0)
  end
  begin
     id 20
     name lwrist
     direction 1 -4.48978e-011 1.92422e-026   
     length 1.97382   
     axis -1.18182e-014 90 90   XYZ
    dof ry
    limits (-180.0 0.0)
 end
  begin
     id 21 
     name lhand
     direction 1 -4.48931e-011 3.84844e-026   
     length 0.560187   
     axis -2.45563e-014 90 90   XYZ
    dof rx rz
    limits (-90.0 90.0)
           (-45.0 45.0)
  end
  begin
     id 22 
     name lfingers
     direction 1 -4.48952e-011 7.69687e-026   
     length 0.451637   
     axis -4.91126e-014 90 90   XYZ
    dof rx
    limits (0.0 90.0)
  end
  begin
     id 23
     name lthumb
     direction 0.707107 -6.34901e-011 0.707107   
     length 0.648463   
     axis -90 45 2.85299e-015   XYZ
    dof rx rz
    limits (-45.0 45.0)
           (-45.0 45.0)
  end
  begin
     id 24 
     name rclavicle
     direction -0.965946 0.258716 0.00371831   
     length 3.63667  
     axis 0 0 0   XYZ 
    dof ry rz
    limits (-10.0 20.0)
           (-20.0 0.0)
  end
  begin
     id 25 
     name rhumerus
     direction -1 -4.48966e-011 -1.78361e-028  
     length 6.28647   
     axis 180 30 90   XYZ
    dof rx ry rz
    limits (-90.0 60.0)
           (-90.0 90.0)
           (-90.0 90.0)
  end
  begin
     id 26 
     name rradius
     direction -1 -4.48961e-011 1.05248e-026   
     length 3.81645   
     axis 180 30 90   XYZ
    dof rx
    limits (-10.0 170.0)
  end
  begin
     id 27 
     name rwrist
     direction -1 -4.48979e-011 1.92422e-026   
     length 1.90822   
     axis -1.18182e-014 -90 -90   XYZ
    dof ry
    limits (-180.0 0.0)
  end
  begin
     id 28
     name rhand
     direction -1 -4.48937e-011 3.84844e-026   
     length 0.646185   
     axis -2.45563e-014 -90 -90   XYZ
    dof rx rz
    limits (-90.0 90.0)
           (-45.0 45.0)
  end
  begin
     id 29
     name rfingers
     direction -1 -4.48953e-011 7.69687e-026   
     length 0.520971   
     axis -4.91126e-014 -90 -90   XYZ
    dof rx
    limits (0.0 90.0)
  end
  begin
     id 30
     name rthumb
     direction -0.707107 -6.3494e-011 0.707107   
     length 0.748013   
     axis -90 -45 -2.85299e-015   XYZ
    dof rx rz
    limits (-45.0 45.0)
           (-45.0 45.0)
  end
:hierarchy
  begin
    root lhipjoint rhipjoint lowerback
    lhipjoint lfemur
    lfemur ltibia
    ltibia lfoot
    lfoot ltoes
    rhipjoint rfemur
    rfemur rtibia
    rtibia rfoot
    rfoot rtoes
    lowerback upperback
    upperback thorax
    thorax lowerneck lclavicle rclavicle
    lowerneck upperneck
    upperneck head
    lclavicle lhumerus
    lhumerus lradius
    lradius lwrist
    lwrist lhand lthumb
    lhand lfingers
    rclavicle rhumerus
    rhumerus rradius
    rradius rwrist
    rwrist rhand rthumb
    rhand rfingers
  end

#!OML:ASF H:\HAZMAT1\Patient Classification 1\Patient 3\Session 1\dancer.ASF
:FULLY-SPECIFIED
:DEGREES
165
upperback -2.514860 -2.970980 -0.523842
rfoot -26.287100 -22.286800
lradius 69.008797
lthumb 33.423100 38.730301
rradius 73.672997
lwrist 36.609100
rhand 6.171440 -12.342300
rhumerus 36.944000 29.735600 -39.984402
lowerneck -4.106950 -0.089355 0.143472
lhand 8.206290 11.820300
ltibia 62.753201
head 1.300400 -0.051167 0.448684
rwrist -45.428902
lfingers 7.125020
rtoes 3.361330
lowerback 0.212218 -2.329590 6.767060
rfingers 7.125020
lclavicle 0.000000 0.000000
upperneck 1.984140 -0.166426 1.541290
rfemur -35.535400 9.326810 21.442900
thorax -3.102010 -1.641020 -4.237590
rclavicle 0.000000 0.000000
rtibia 49.342701
lfoot -17.209999 -6.676950
lhumerus 34.498299 -28.424101 41.176800
rthumb 31.486700 -39.649899
root 0.159295 18.535801 16.604700 196.707993 48.840099 545.195007
ltoes -4.234250
lfemur -31.865200 -8.366530 -18.856001
166
upperback -2.503480 -2.374650 -0.869156
rfoot -20.601801 -10.179400
lradius 69.974701
lthumb 34.445499 39.204300
rradius 72.760696
lwrist 39.359901
rhand 5.778290 -12.060400
rhumerus 42.602001 21.782301 -38.003300
lowerneck -4.030320 -0.016033 0.880863
lhand 9.282460 12.520600
ltibia 65.293999
head -0.798665 0.153767 1.163230
rwrist -45.660801
lfingers 7.125020
rtoes -8.281230
lowerback 2.670650 -1.911980 4.261210
rfingers 7.125020
lclavicle 0.000000 -0.000000
upperneck -4.761360 0.242135 4.258150
rfemur -58.233398 -1.062230 24.403400
thorax -4.301550 -1.317290 -3.133940
rclavicle 0.000000 -0.000000
rtibia 83.852501
lfoot -26.743200 -0.727237
lhumerus 42.033199 -21.627600 33.386299
rthumb 31.112000 -39.440498
root -2.969910 17.704399 19.693701 206.067993 50.875099 546.151001
ltoes 12.893000
lfemur -54.172901 -6.138220 -16.619200
167
upperback -2.609020 -0.636180 -1.539220
rfoot -7.669790 -1.284830
lradius 69.412903
lthumb 35.859600 39.024601
rradius 72.764900
lwrist 38.107800
rhand 3.709560 -11.988700
rhumerus 38.896301 23.438400 -37.603901
lowerneck -4.104360 -1.526500 0.204450
lhand 10.773500 12.673700
ltibia 66.742104
head -0.088964 -0.926809 0.884570
rwrist -45.741402
lfingers 7.125020
rtoes -8.633200
lowerback 1.486320 -0.566592 4.243900
rfingers 7.125020
lclavicle -0.000000 -0.000000
upperneck -2.600830 -1.932740 3.088130
rfemur -8.637470 3.149230 16.665800
thorax -3.594720 -0.443064 -3.946440
rclavicle -0.000000 -0.000000
rtibia 64.056602
lfoot -13.590000 -1.763250
lhumerus 43.194901 -25.196600 32.972198
rthumb 29.138399 -39.728600
root -5.436910 16.967300 22.661800 201.363007 48.801399 543.833008
ltoes 11.068900
lfemur -67.558296 -7.022310 -12.768200
168
upperback -2.875890 -0.277109 -1.711240
rfoot -32.210999 -19.848600
lradius 70.919296
lthumb 35.971298 38.983101
rradius 73.257301
lwrist 39.539101
rhand 3.223970 -11.689300
rhumerus 37.648998 24.988899 -43.169399
lowerneck -3.591770 -0.966201 -0.068643
lhand 10.891300 12.659500
ltibia 38.317001
head 0.523167 -0.609178 0.682293
rwrist -44.638302
lfingers 7.125020
rtoes -15.016500
lowerback -0.888465 -0.245909 4.826970
rfingers 7.125020
lclavicle -0.000000 -0.000000
upperneck -0.275095 -1.280210 2.263270
rfemur 4.428420 13.768000 25.378901
thorax -2.503000 -0.248179 -4.476670
rclavicle -0.000000 -0.000000
rtibia 19.851700
lfoot -16.968700 11.309700
lhumerus 39.752800 -24.340799 33.273800
rthumb 28.674601 -39.508499
root -8.235350 18.100300 26.674299 202.022003 49.244301 544.684998
ltoes -0.066269
lfemur -63.158501 -18.098600 4.579000
